<svg width="884" height="381" viewBox="0 0 884 381" fill="none" xmlns="http://www.w3.org/2000/svg">
<g filter="url(#filter0_d_16_5)">
<path d="M323.571 18.0002C322.609 15.8496 322.699 12.0001 325.124 12.0001C349.451 11.9999 383.041 11.5 422.379 11.5C431.956 11.5 441.012 13.1077 449.348 15.5C451.882 16.2273 459.013 19.5 462.234 21.5C465.455 23.4999 472.694 29.5081 475.228 32.5001C477.762 35.4921 481.749 41.5004 485.062 49.5002C488.375 57.5 489.203 67.5002 489.203 67.5002C489.203 67.5002 489.326 80.4394 487.65 88.5003C485.837 97.2185 483.321 105 480.921 108.5C478.522 112 473.157 118.266 466.429 123C459.7 127.735 448.83 132 448.83 132V164.5C448.83 164.5 532.627 164.5 534.234 164.5C535.84 164.5 536.768 160 536.768 160H546.139V197H537.857L534.234 193H406.387C406.387 193 403.853 192.5 402.764 191C401.675 189.5 401.729 187.5 401.729 187.5C401.729 187.5 401.729 181.5 407.422 181.5C408.458 181.5 407.422 137 407.422 137H327.195C323.571 137 323.518 133 323.518 131.5V131.5C323.518 130 323.518 126.917 326.106 126.5C328.694 126.083 329.783 124 329.783 124V22.5002C329.783 19.5713 324.775 20.6886 323.571 18.0002Z" fill="#EEC99A" shape-rendering="crispEdges"/>
<path d="M323.571 18.0002C322.609 15.8496 322.699 12.0001 325.124 12.0001C349.451 11.9999 383.041 11.5 422.379 11.5C431.956 11.5 441.012 13.1077 449.348 15.5C451.882 16.2273 459.013 19.5 462.234 21.5C465.455 23.4999 472.694 29.5081 475.228 32.5001C477.762 35.4921 481.749 41.5004 485.062 49.5002C488.375 57.5 489.203 67.5002 489.203 67.5002C489.203 67.5002 489.326 80.4394 487.65 88.5003C485.837 97.2185 483.321 105 480.921 108.5C478.522 112 473.157 118.266 466.429 123C459.7 127.735 448.83 132 448.83 132V164.5C448.83 164.5 532.627 164.5 534.234 164.5C535.84 164.5 536.768 160 536.768 160H546.139V197H537.857L534.234 193H406.387C406.387 193 403.853 192.5 402.764 191C401.675 189.5 401.729 187.5 401.729 187.5C401.729 187.5 401.729 181.5 407.422 181.5C408.458 181.5 407.422 137 407.422 137H327.195C323.571 137 323.518 133 323.518 131.5V131.5C323.518 130 323.518 126.917 326.106 126.5C328.694 126.083 329.783 124 329.783 124V22.5002C329.783 19.5713 324.775 20.6886 323.571 18.0002Z" stroke="black" stroke-opacity="0.25" shape-rendering="crispEdges"/>
</g>
<path d="M446.304 78.2523C446.45 77.4306 448.259 76.4315 448.259 77.2803C448.014 82.6 448.143 83.9999 447.224 86.4999C446.304 88.9999 446.304 78.2523 446.304 78.2523Z" fill="#8B8B8B"/>
<g filter="url(#filter1_d_16_5)">
<path d="M326.623 16.5V14.5H412.027C463.269 11.5 485.008 43 485.008 69.5C485.008 96 477.244 116.5 447.741 127.5V96C451.697 89.6041 452.684 84.8704 452.917 75C454.983 71.6806 455.331 69.8193 452.917 66.5C447.99 44.1386 439.149 36.5609 409.956 34H364.925V113.5H408.404V133H327.141V130L333.87 124.5V20.5L326.623 16.5Z" fill="#033A5B"/>
<path d="M450.329 69.5H405.816V72.5C409.515 73.3479 410.72 74.3107 412.027 76.5V182C410.011 184.255 408.518 185.109 405.298 186V188.5H534.698C537.781 189.572 538.927 190.769 540.391 193.5H542.979V163.5H540.391C539.319 166.409 538.243 167.557 535.733 169H444.118V76.5C445.502 73.5897 446.978 72.8636 450.329 72.5V69.5Z" fill="#033A5B"/>
</g>
<g filter="url(#filter2_i_16_5)">
<path d="M369.584 108.5V38.5H407.886C407.886 38.5 423.605 38.5 434.284 44C447.741 50.9314 447.741 66 447.741 66H404.781L401.675 68.5V75L407.886 77.5V108.5H369.584Z" fill="white"/>
</g>
<path d="M369.584 108.5V38.5H407.886C407.886 38.5 423.605 38.5 434.284 44C447.741 50.9314 447.741 66 447.741 66H404.781L401.675 68.5V75L407.886 77.5V108.5H369.584Z" stroke="black" stroke-opacity="0.25"/>
<path d="M43.92 280.18C47.68 280.18 50.96 279.86 53.76 279.22C56.56 278.58 58.88 277.46 60.72 275.86C62.56 274.18 63.92 271.98 64.8 269.26C65.76 266.54 66.24 263.1 66.24 258.94C66.24 254.78 65.76 251.34 64.8 248.62C63.92 245.9 62.56 243.74 60.72 242.14C58.88 240.46 56.56 239.3 53.76 238.66C50.96 238.02 47.68 237.7 43.92 237.7H25.32V280.18H43.92ZM48.72 227.38C53.12 227.38 57.2 228.02 60.96 229.3C64.8 230.58 68.12 232.54 70.92 235.18C73.72 237.74 75.92 241.02 77.52 245.02C79.12 248.94 79.92 253.58 79.92 258.94C79.92 264.3 79.12 268.98 77.52 272.98C75.92 276.9 73.72 280.18 70.92 282.82C68.12 285.38 64.8 287.3 60.96 288.58C57.2 289.86 53.12 290.5 48.72 290.5H8.88V288.34C10.72 288.34 11.64 287.62 11.64 286.18V231.7C11.64 230.26 10.72 229.54 8.88 229.54V227.38H48.72ZM142.762 248.86C142.762 247.34 141.522 246.58 139.042 246.58H109.762V258.58H128.242C129.602 258.58 130.602 258.5 131.242 258.34C131.882 258.1 132.202 257.54 132.202 256.66H134.362V269.38H131.962C132.202 268.5 131.882 267.98 131.002 267.82C130.122 267.58 128.882 267.46 127.282 267.46H109.762V281.62H140.482C141.442 281.62 142.242 281.42 142.882 281.02C143.522 280.54 143.842 279.94 143.842 279.22H146.002V291.82H143.842C143.842 291.1 143.522 290.7 142.882 290.62C142.242 290.54 141.442 290.5 140.482 290.5H96.4416V288.34C96.8416 288.34 97.2416 288.22 97.6416 287.98C98.0416 287.66 98.2416 287.18 98.2416 286.54V241.66C98.2416 241.02 98.0416 240.58 97.6416 240.34C97.2416 240.02 96.8416 239.86 96.4416 239.86V237.7H139.042C141.522 237.7 142.762 236.98 142.762 235.54H144.922V248.86H142.762ZM179.801 237.7V239.86C177.961 239.86 177.041 240.46 177.041 241.66V281.62H209.441C210.401 281.62 211.201 281.42 211.841 281.02C212.481 280.54 212.801 279.9 212.801 279.1H214.961V291.7H212.801C212.801 291.06 212.481 290.7 211.841 290.62C211.201 290.54 210.401 290.5 209.441 290.5H162.401V288.34C164.481 288.34 165.521 287.74 165.521 286.54V241.66C165.521 240.46 164.481 239.86 162.401 239.86V237.7H179.801ZM276.481 255.1L275.041 254.26C275.201 253.46 275.281 253.02 275.281 252.94C275.281 252.22 274.761 251.46 273.721 250.66C272.681 249.78 271.321 248.98 269.641 248.26C267.961 247.54 266.041 246.98 263.881 246.58C261.801 246.1 259.681 245.86 257.521 245.86C254.561 245.86 251.761 246.22 249.121 246.94C246.481 247.58 244.161 248.66 242.161 250.18C240.161 251.62 238.561 253.5 237.361 255.82C236.161 258.14 235.561 260.98 235.561 264.34C235.561 267.7 236.201 270.54 237.481 272.86C238.761 275.1 240.401 276.94 242.401 278.38C244.481 279.74 246.761 280.74 249.241 281.38C251.721 282.02 254.121 282.34 256.441 282.34C259.881 282.34 263.121 282.1 266.161 281.62C269.281 281.14 272.121 280.22 274.681 278.86V271.3H262.321C261.441 271.3 260.681 271.5 260.041 271.9C259.401 272.22 259.001 272.86 258.841 273.82H256.681V261.46H258.841C259.001 262.26 259.401 262.78 260.041 263.02C260.681 263.26 261.441 263.38 262.321 263.38H285.841V265.54C285.121 265.86 284.641 266.22 284.401 266.62C284.161 267.02 284.041 267.62 284.041 268.42V279.82C284.041 280.54 284.121 281.06 284.281 281.38C284.521 281.62 285.041 281.9 285.841 282.22V283.66C285.121 284.14 283.961 284.82 282.361 285.7C280.841 286.5 278.881 287.3 276.481 288.1C274.161 288.9 271.441 289.58 268.321 290.14C265.201 290.62 261.721 290.86 257.881 290.86C252.681 290.86 247.961 290.3 243.721 289.18C239.561 287.98 236.001 286.22 233.041 283.9C230.161 281.58 227.921 278.78 226.321 275.5C224.801 272.14 224.041 268.34 224.041 264.1C224.041 259.86 224.801 256.1 226.321 252.82C227.921 249.46 230.161 246.62 233.041 244.3C236.001 241.9 239.561 240.1 243.721 238.9C247.961 237.62 252.681 236.98 257.881 236.98C261.001 236.98 263.761 237.26 266.161 237.82C268.561 238.38 270.641 238.98 272.401 239.62C274.241 240.26 275.721 240.86 276.841 241.42C277.961 241.98 278.801 242.26 279.361 242.26C280.001 242.26 280.481 242.22 280.801 242.14C281.121 241.98 281.521 241.7 282.001 241.3L283.441 242.02L276.481 255.1ZM335.2 268.42L325.48 248.26L316.96 268.42H335.2ZM295.12 288.34C296.08 288.18 296.84 287.74 297.4 287.02C298.04 286.22 298.52 285.5 298.84 284.86L316.72 245.86C317.2 244.74 317.56 243.86 317.8 243.22C318.12 242.5 318.28 241.82 318.28 241.18C318.28 240.7 318.16 240.42 317.92 240.34C317.76 240.18 317.56 240.02 317.32 239.86V237.7H335.44V239.86C335.2 240.02 334.92 240.14 334.6 240.22C334.36 240.3 334.24 240.62 334.24 241.18C334.24 241.66 334.4 242.26 334.72 242.98C335.12 243.62 335.52 244.38 335.92 245.26L355.36 286.06C355.76 286.78 356.2 287.3 356.68 287.62C357.16 287.94 357.68 288.18 358.24 288.34V290.5H341.2V288.7C341.6 288.7 342 288.58 342.4 288.34C342.88 288.1 343.12 287.66 343.12 287.02C343.12 286.54 343.04 286.1 342.88 285.7C342.72 285.3 342.52 284.78 342.28 284.14L339.04 277.3H313.36L310 283.78C309.68 284.42 309.4 285.02 309.16 285.58C309 286.06 308.92 286.5 308.92 286.9C308.92 287.54 309.12 287.94 309.52 288.1C309.92 288.26 310.48 288.34 311.2 288.34V290.5H295.12V288.34ZM397.92 281.62C400.4 281.62 402.76 281.46 405 281.14C407.24 280.74 409.2 279.94 410.88 278.74C412.56 277.46 413.88 275.66 414.84 273.34C415.88 270.94 416.4 267.74 416.4 263.74C416.4 259.74 415.88 256.62 414.84 254.38C413.88 252.06 412.56 250.34 410.88 249.22C409.2 248.02 407.24 247.3 405 247.06C402.76 246.74 400.4 246.58 397.92 246.58H382.32V281.62H397.92ZM368.04 288.34C369.88 288.34 370.8 287.74 370.8 286.54V241.66C370.8 240.46 369.88 239.86 368.04 239.86V237.7H401.4C406.12 237.7 410.16 238.46 413.52 239.98C416.88 241.5 419.6 243.5 421.68 245.98C423.84 248.38 425.4 251.18 426.36 254.38C427.4 257.5 427.92 260.74 427.92 264.1C427.92 267.46 427.44 270.74 426.48 273.94C425.52 277.06 424 279.86 421.92 282.34C419.84 284.74 417.16 286.7 413.88 288.22C410.6 289.74 406.6 290.5 401.88 290.5H368.04V288.34ZM469.959 245.86C467.399 245.86 464.879 246.3 462.399 247.18C459.999 247.98 457.839 249.18 455.919 250.78C453.999 252.3 452.439 254.18 451.239 256.42C450.119 258.66 449.559 261.22 449.559 264.1C449.559 266.98 450.119 269.54 451.239 271.78C452.439 274.02 453.999 275.94 455.919 277.54C457.839 279.06 459.999 280.26 462.399 281.14C464.879 281.94 467.399 282.34 469.959 282.34C472.519 282.34 474.999 281.94 477.399 281.14C479.879 280.26 482.079 279.06 483.999 277.54C485.919 275.94 487.439 274.02 488.559 271.78C489.759 269.54 490.359 266.98 490.359 264.1C490.359 261.22 489.759 258.66 488.559 256.42C487.439 254.18 485.919 252.3 483.999 250.78C482.079 249.18 479.879 247.98 477.399 247.18C474.999 246.3 472.519 245.86 469.959 245.86ZM469.959 236.98C474.359 236.98 478.479 237.54 482.319 238.66C486.239 239.78 489.639 241.46 492.519 243.7C495.399 245.94 497.679 248.78 499.359 252.22C501.039 255.58 501.879 259.54 501.879 264.1C501.879 268.66 501.039 272.66 499.359 276.1C497.679 279.46 495.399 282.26 492.519 284.5C489.639 286.74 486.239 288.38 482.319 289.42C478.479 290.38 474.359 290.86 469.959 290.86C465.559 290.86 461.399 290.38 457.479 289.42C453.639 288.38 450.279 286.74 447.399 284.5C444.519 282.26 442.239 279.46 440.559 276.1C438.879 272.66 438.039 268.66 438.039 264.1C438.039 259.54 438.879 255.58 440.559 252.22C442.239 248.78 444.519 245.94 447.399 243.7C450.279 241.46 453.639 239.78 457.479 238.66C461.399 237.54 465.559 236.98 469.959 236.98ZM569.801 237.7V239.86C567.961 239.86 567.041 240.46 567.041 241.66V281.62H599.441C600.401 281.62 601.201 281.42 601.841 281.02C602.481 280.54 602.801 279.9 602.801 279.1H604.961V291.7H602.801C602.801 291.06 602.481 290.7 601.841 290.62C601.201 290.54 600.401 290.5 599.441 290.5H552.401V288.34C554.481 288.34 555.521 287.74 555.521 286.54V241.66C555.521 240.46 554.481 239.86 552.401 239.86V237.7H569.801ZM666.121 248.86C666.121 247.34 664.881 246.58 662.401 246.58H633.121V258.58H651.601C652.961 258.58 653.961 258.5 654.601 258.34C655.241 258.1 655.561 257.54 655.561 256.66H657.721V269.38H655.321C655.561 268.5 655.241 267.98 654.361 267.82C653.481 267.58 652.241 267.46 650.641 267.46H633.121V281.62H663.841C664.801 281.62 665.601 281.42 666.241 281.02C666.881 280.54 667.201 279.94 667.201 279.22H669.361V291.82H667.201C667.201 291.1 666.881 290.7 666.241 290.62C665.601 290.54 664.801 290.5 663.841 290.5H619.801V288.34C620.201 288.34 620.601 288.22 621.001 287.98C621.401 287.66 621.601 287.18 621.601 286.54V241.66C621.601 241.02 621.401 240.58 621.001 240.34C620.601 240.02 620.201 239.86 619.801 239.86V237.7H662.401C664.881 237.7 666.121 236.98 666.121 235.54H668.281V248.86H666.121ZM733.161 255.1L731.721 254.26C731.881 253.46 731.961 253.02 731.961 252.94C731.961 252.22 731.441 251.46 730.401 250.66C729.361 249.78 728.001 248.98 726.321 248.26C724.641 247.54 722.721 246.98 720.561 246.58C718.481 246.1 716.361 245.86 714.201 245.86C711.241 245.86 708.441 246.22 705.801 246.94C703.161 247.58 700.841 248.66 698.841 250.18C696.841 251.62 695.241 253.5 694.041 255.82C692.841 258.14 692.241 260.98 692.241 264.34C692.241 267.7 692.881 270.54 694.161 272.86C695.441 275.1 697.081 276.94 699.081 278.38C701.161 279.74 703.441 280.74 705.921 281.38C708.401 282.02 710.801 282.34 713.121 282.34C716.561 282.34 719.801 282.1 722.841 281.62C725.961 281.14 728.801 280.22 731.361 278.86V271.3H719.001C718.121 271.3 717.361 271.5 716.721 271.9C716.081 272.22 715.681 272.86 715.521 273.82H713.361V261.46H715.521C715.681 262.26 716.081 262.78 716.721 263.02C717.361 263.26 718.121 263.38 719.001 263.38H742.521V265.54C741.801 265.86 741.321 266.22 741.081 266.62C740.841 267.02 740.721 267.62 740.721 268.42V279.82C740.721 280.54 740.801 281.06 740.961 281.38C741.201 281.62 741.721 281.9 742.521 282.22V283.66C741.801 284.14 740.641 284.82 739.041 285.7C737.521 286.5 735.561 287.3 733.161 288.1C730.841 288.9 728.121 289.58 725.001 290.14C721.881 290.62 718.401 290.86 714.561 290.86C709.361 290.86 704.641 290.3 700.401 289.18C696.241 287.98 692.681 286.22 689.721 283.9C686.841 281.58 684.601 278.78 683.001 275.5C681.481 272.14 680.721 268.34 680.721 264.1C680.721 259.86 681.481 256.1 683.001 252.82C684.601 249.46 686.841 246.62 689.721 244.3C692.681 241.9 696.241 240.1 700.401 238.9C704.641 237.62 709.361 236.98 714.561 236.98C717.681 236.98 720.441 237.26 722.841 237.82C725.241 238.38 727.321 238.98 729.081 239.62C730.921 240.26 732.401 240.86 733.521 241.42C734.641 241.98 735.481 242.26 736.041 242.26C736.681 242.26 737.161 242.22 737.481 242.14C737.801 241.98 738.201 241.7 738.681 241.3L740.121 242.02L733.161 255.1ZM791.88 268.42L782.16 248.26L773.64 268.42H791.88ZM751.8 288.34C752.76 288.18 753.52 287.74 754.08 287.02C754.72 286.22 755.2 285.5 755.52 284.86L773.4 245.86C773.88 244.74 774.24 243.86 774.48 243.22C774.8 242.5 774.96 241.82 774.96 241.18C774.96 240.7 774.84 240.42 774.6 240.34C774.44 240.18 774.24 240.02 774 239.86V237.7H792.12V239.86C791.88 240.02 791.6 240.14 791.28 240.22C791.04 240.3 790.92 240.62 790.92 241.18C790.92 241.66 791.08 242.26 791.4 242.98C791.8 243.62 792.2 244.38 792.6 245.26L812.04 286.06C812.44 286.78 812.88 287.3 813.36 287.62C813.84 287.94 814.36 288.18 814.92 288.34V290.5H797.88V288.7C798.28 288.7 798.68 288.58 799.08 288.34C799.56 288.1 799.8 287.66 799.8 287.02C799.8 286.54 799.72 286.1 799.56 285.7C799.4 285.3 799.2 284.78 798.96 284.14L795.72 277.3H770.04L766.68 283.78C766.36 284.42 766.08 285.02 765.84 285.58C765.68 286.06 765.6 286.5 765.6 286.9C765.6 287.54 765.8 287.94 766.2 288.1C766.6 288.26 767.16 288.34 767.88 288.34V290.5H751.8V288.34ZM843.2 237.7V239.86C841.36 239.86 840.44 240.46 840.44 241.66V281.62H872.84C873.8 281.62 874.6 281.42 875.24 281.02C875.88 280.54 876.2 279.9 876.2 279.1H878.36V291.7H876.2C876.2 291.06 875.88 290.7 875.24 290.62C874.6 290.54 873.8 290.5 872.84 290.5H825.8V288.34C827.88 288.34 828.92 287.74 828.92 286.54V241.66C828.92 240.46 827.88 239.86 825.8 239.86V237.7H843.2Z" fill="#033A5B"/>
<path d="M404.24 331.805C405.802 331.805 407.127 331.498 408.216 330.882C409.352 330.267 409.92 329.06 409.92 327.261C409.92 325.463 409.352 324.256 408.216 323.64C407.127 323.025 405.802 322.717 404.24 322.717H389.117V331.805H404.24ZM378.396 353.531V352.253C380.147 352.253 381.023 351.827 381.023 350.975V318.741C381.023 317.889 380.147 317.463 378.396 317.463V316.185H403.388C407.932 316.185 411.506 317.037 414.109 318.741C416.712 320.398 418.014 323.238 418.014 327.261C418.014 331.285 416.712 334.148 414.109 335.852C411.506 337.509 407.932 338.337 403.388 338.337H389.117V350.975C389.117 351.827 389.874 352.253 391.389 352.253V353.531H378.396ZM426.107 348.916C426.107 347.544 426.604 346.36 427.598 345.366C428.592 344.372 429.776 343.875 431.148 343.875C432.521 343.875 433.704 344.372 434.698 345.366C435.692 346.36 436.189 347.544 436.189 348.916C436.189 350.289 435.692 351.449 434.698 352.395C433.704 353.295 432.521 353.744 431.148 353.744C429.776 353.744 428.592 353.295 427.598 352.395C426.604 351.449 426.107 350.289 426.107 348.916ZM470.247 339.047L464.283 325.841L457.609 339.047H470.247ZM443.48 352.253C444.096 352.159 444.569 351.851 444.9 351.33C445.279 350.81 445.634 350.218 445.965 349.555L459.1 321.936C459.432 321.321 459.716 320.753 459.952 320.232C460.236 319.712 460.378 319.262 460.378 318.883C460.378 318.41 460.213 318.079 459.881 317.889C459.55 317.7 459.195 317.558 458.816 317.463V316.185H470.815V317.463C470.484 317.558 470.153 317.7 469.821 317.889C469.49 318.031 469.324 318.363 469.324 318.883C469.324 319.262 469.395 319.641 469.537 320.019C469.727 320.398 469.987 320.895 470.318 321.51L485.086 350.407C485.323 350.928 485.631 351.307 486.009 351.543C486.435 351.78 486.909 352.017 487.429 352.253V353.531H474.933V352.253C475.123 352.253 475.359 352.182 475.643 352.04C475.927 351.898 476.069 351.685 476.069 351.401C476.069 350.928 475.88 350.313 475.501 349.555L472.803 344.301H455.479L452.923 349.342C452.45 350.336 452.213 351.046 452.213 351.472C452.213 351.993 452.663 352.253 453.562 352.253V353.531H443.48V352.253ZM495.097 348.916C495.097 347.544 495.594 346.36 496.588 345.366C497.582 344.372 498.765 343.875 500.138 343.875C501.51 343.875 502.694 344.372 503.688 345.366C504.682 346.36 505.179 347.544 505.179 348.916C505.179 350.289 504.682 351.449 503.688 352.395C502.694 353.295 501.51 353.744 500.138 353.744C498.765 353.744 497.582 353.295 496.588 352.395C495.594 351.449 495.097 350.289 495.097 348.916Z" fill="#033A5B"/>
<line x1="87" y1="337.016" x2="347" y2="337.016" stroke="#EEC99A" stroke-width="5"/>
<line x1="549" y1="337.016" x2="809" y2="337.016" stroke="#EEC99A" stroke-width="5"/>
<defs>
<filter id="filter0_d_16_5" x="307.5" y="0" width="254.139" height="216.5" filterUnits="userSpaceOnUse" color-interpolation-filters="sRGB">
<feFlood flood-opacity="0" result="BackgroundImageFix"/>
<feColorMatrix in="SourceAlpha" type="matrix" values="0 0 0 0 0 0 0 0 0 0 0 0 0 0 0 0 0 0 127 0" result="hardAlpha"/>
<feOffset dy="4"/>
<feGaussianBlur stdDeviation="7.5"/>
<feComposite in2="hardAlpha" operator="out"/>
<feColorMatrix type="matrix" values="0 0 0 0 0 0 0 0 0 0 0 0 0 0 0 0 0 0 0.25 0"/>
<feBlend mode="normal" in2="BackgroundImageFix" result="effect1_dropShadow_16_5"/>
<feBlend mode="normal" in="SourceGraphic" in2="effect1_dropShadow_16_5" result="shape"/>
</filter>
<filter id="filter1_d_16_5" x="311.623" y="3.30096" width="246.356" height="209.199" filterUnits="userSpaceOnUse" color-interpolation-filters="sRGB">
<feFlood flood-opacity="0" result="BackgroundImageFix"/>
<feColorMatrix in="SourceAlpha" type="matrix" values="0 0 0 0 0 0 0 0 0 0 0 0 0 0 0 0 0 0 127 0" result="hardAlpha"/>
<feOffset dy="4"/>
<feGaussianBlur stdDeviation="7.5"/>
<feComposite in2="hardAlpha" operator="out"/>
<feColorMatrix type="matrix" values="0 0 0 0 0 0 0 0 0 0 0 0 0 0 0 0 0 0 0.25 0"/>
<feBlend mode="normal" in2="BackgroundImageFix" result="effect1_dropShadow_16_5"/>
<feBlend mode="normal" in="SourceGraphic" in2="effect1_dropShadow_16_5" result="shape"/>
</filter>
<filter id="filter2_i_16_5" x="369.084" y="38" width="79.1573" height="75" filterUnits="userSpaceOnUse" color-interpolation-filters="sRGB">
<feFlood flood-opacity="0" result="BackgroundImageFix"/>
<feBlend mode="normal" in="SourceGraphic" in2="BackgroundImageFix" result="shape"/>
<feColorMatrix in="SourceAlpha" type="matrix" values="0 0 0 0 0 0 0 0 0 0 0 0 0 0 0 0 0 0 127 0" result="hardAlpha"/>
<feOffset dy="4"/>
<feGaussianBlur stdDeviation="7.5"/>
<feComposite in2="hardAlpha" operator="arithmetic" k2="-1" k3="1"/>
<feColorMatrix type="matrix" values="0 0 0 0 0 0 0 0 0 0 0 0 0 0 0 0 0 0 0.25 0"/>
<feBlend mode="normal" in2="shape" result="effect1_innerShadow_16_5"/>
</filter>
</defs>
</svg>
